<?xml version="1.0" encoding="UTF-8"?>
<svg id="a" xmlns="http://www.w3.org/2000/svg" viewBox="0 0 109.89 25.58">
    <defs>
        <style>.b{fill:#3e5b98;}</style>
    </defs>
    <path class="b" d="M18.41,22.47c-.93,0-1.7-.3-2.29-.89-.61-.57-.92-1.39-.92-2.47V10.9h-1.33v-2.11h1.33V4.64h2.66v4.16h1.94v2.11h-1.94v7.97c-.02,.69,.3,1.03,.94,1.01h.89L27.38,0H9.89L0,25.58H17.49l1.2-3.11h-.28Z"/>
    <g>
        <path class="b" d="M34.39,18.32c0,.47,.2,.86,.6,1.19,.38,.36,1.02,.54,1.9,.54,1.12,.02,1.9-.12,2.36-.41,.42-.29,.63-.95,.63-1.98v-.99h-3.19c-1.55,.04-2.32,.58-2.3,1.65Z"/>
        <path class="b" d="M38.68,22.28c-.51,.23-1.22,.34-2.12,.34-1.48-.02-2.62-.42-3.42-1.21-.84-.77-1.26-1.76-1.26-2.96s.37-2.1,1.1-2.86c.73-.77,1.8-1.17,3.21-1.18h3.68v-1.44c.02-1.21-.89-1.79-2.72-1.76-.66,0-1.19,.07-1.57,.21-.4,.17-.71,.45-.94,.85l-2.09-1.65c1.01-1.36,2.5-2.03,4.47-1.99,1.67-.02,2.99,.31,3.99,.97,.99,.68,1.5,1.86,1.52,3.53v1.02L48.01,0H30.52l-9.89,25.58h17.49l1.63-4.22c-.25,.41-.59,.72-1.07,.92Z"/>
    </g>
    <g>
        <path class="b" d="M61.19,17.14c.02-.49,.03-1,.03-1.52s0-1.08-.03-1.6c-.06-.48-.17-.93-.34-1.35-.15-.41-.41-.74-.78-.98-.37-.22-.86-.33-1.49-.33-.6,0-1.07,.13-1.42,.38-.37,.26-.63,.59-.8,1-.16,.41-.27,.86-.32,1.35-.05,.48-.08,.99-.08,1.52,0,.49,.03,.98,.08,1.48,.05,.51,.16,.97,.32,1.39,.17,.41,.44,.75,.8,1,.35,.26,.82,.4,1.42,.4,.63,0,1.13-.12,1.49-.37,.37-.25,.63-.58,.78-.98,.17-.41,.29-.88,.34-1.4Z"/>
        <path class="b" d="M59.37,22.63c-1.39-.04-2.53-.56-3.42-1.59v1.43h-2.66V3.27h2.66v6.98c.48-.48,1.02-.88,1.59-1.19,.54-.29,1.14-.43,1.82-.43,1.62,.04,2.81,.64,3.56,1.79,.36,.43,.61,1,.75,1.7,.03,.15,.05,.33,.07,.52L68.63,0h-17.49l-9.89,25.58h17.49l1.16-2.99c-.17,.02-.35,.03-.53,.04Z"/>
    </g>
    <path class="b" d="M80.34,22.47c-.97,0-1.77-.25-2.4-.75-.66-.51-.99-1.36-.99-2.56V3.27h2.66v15.69c0,.62,.33,.94,1,.94h.92v.13L89.26,0h-17.49l-9.89,25.58h17.49l1.2-3.11h-.24Z"/>
    <g>
        <path class="b" d="M98.85,22.62c-1.01-.02-1.84-.21-2.49-.59-.65-.34-1.17-.73-1.53-1.16-.49-.55-.86-1.21-1.1-1.96-.23-.75-.34-1.85-.34-3.29s.11-2.55,.34-3.32c.24-.76,.6-1.39,1.1-1.91,.37-.45,.88-.86,1.53-1.22,.65-.34,1.48-.52,2.49-.54,1.05,.02,1.89,.2,2.54,.54,.64,.36,1.13,.77,1.48,1.22,.53,.52,.9,1.15,1.12,1.91,.15,.56,.25,1.29,.29,2.2L109.89,0h-17.49l-9.89,25.58h17.49l1.37-3.53c-.64,.37-1.48,.56-2.51,.58Z"/>
        <path class="b" d="M101,12.37c-.2-.31-.49-.55-.87-.73-.37-.18-.79-.28-1.28-.28-.45,0-.87,.09-1.25,.28-.37,.18-.66,.42-.89,.73-.23,.33-.4,.71-.5,1.14-.1,.45-.15,1.15-.15,2.11s.05,1.65,.15,2.09c.1,.45,.27,.85,.5,1.19,.23,.26,.53,.5,.89,.7,.38,.19,.8,.29,1.25,.29,.49,0,.91-.1,1.28-.29,.38-.2,.67-.44,.87-.7,.26-.34,.44-.74,.52-1.19,.08-.44,.13-1.13,.13-2.06s-.04-1.69-.13-2.14c-.09-.43-.26-.81-.52-1.14Z"/>
    </g>
</svg>